# 3ds Max Wavefront OBJ Exporter v0.97b - (c)2007 guruware
# File Created: 02.08.2012 20:28:39

#
# object Object01
#

v  -0.3136 2.4302 0.4214
v  0.0001 2.4261 0.4824
v  -0.0000 2.5566 0.1264
v  -0.5290 2.4546 0.1193
v  -0.4609 2.4628 -0.1743
v  0.0001 2.5190 -0.2599
v  0.0001 2.1133 0.6780
v  -0.4526 2.1247 0.5154
v  -0.6619 2.1506 0.0948
v  -0.5418 2.1767 -0.2788
v  0.0001 2.3920 -0.3382
v  -0.4431 1.6813 0.4894
v  -0.0000 1.6705 0.6436
v  -0.6613 1.7086 0.0579
v  0.3137 2.4302 0.4214
v  0.5291 2.4546 0.1193
v  0.4610 2.4628 -0.1743
v  0.4527 2.1247 0.5154
v  0.6620 2.1506 0.0948
v  0.5420 2.1767 -0.2788
v  0.4432 1.6813 0.4894
v  0.6614 1.7086 0.0579
# 22 vertices

vn -0.3544 0.7306 0.5836
vn 0.0000 0.7564 0.6541
vn -0.0000 0.9942 0.1078
vn -0.6723 0.7275 0.1367
vn -0.3544 0.7306 0.5836
vn -0.0000 0.9942 0.1078
vn -0.5307 0.7168 -0.4522
vn -0.6723 0.7275 0.1367
vn -0.0000 0.9942 0.1078
vn -0.0000 0.8357 -0.5492
vn -0.5307 0.7168 -0.4522
vn -0.0000 0.9942 0.1078
vn -0.3544 0.7306 0.5836
vn -0.6418 0.1779 0.7459
vn 0.0001 0.1933 0.9811
vn 0.0000 0.7564 0.6541
vn -0.6723 0.7275 0.1367
vn -0.9788 0.1863 0.0854
vn -0.6418 0.1779 0.7459
vn -0.3544 0.7306 0.5836
vn -0.7998 0.3226 -0.5062
vn -0.9788 0.1863 0.0854
vn -0.6723 0.7275 0.1367
vn -0.5307 0.7168 -0.4522
vn 0.0000 0.4898 -0.8718
vn -0.7998 0.3226 -0.5062
vn -0.5307 0.7168 -0.4522
vn -0.0000 0.8357 -0.5492
vn -0.0001 -0.0720 0.9974
vn 0.0001 0.1933 0.9811
vn -0.6418 0.1779 0.7459
vn -0.6566 -0.0565 0.7521
vn -0.6566 -0.0565 0.7521
vn -0.6418 0.1779 0.7459
vn -0.9788 0.1863 0.0854
vn -0.9748 -0.0199 0.2223
vn -0.7998 0.3226 -0.5062
vn -0.9748 -0.0199 0.2223
vn -0.9788 0.1863 0.0854
vn 0.0000 0.7564 0.6541
vn 0.3544 0.7306 0.5836
vn -0.0000 0.9942 0.1078
vn 0.3544 0.7306 0.5836
vn 0.6723 0.7275 0.1367
vn -0.0000 0.9942 0.1078
vn 0.6723 0.7275 0.1367
vn 0.5307 0.7168 -0.4522
vn -0.0000 0.9942 0.1078
vn 0.5307 0.7168 -0.4522
vn -0.0000 0.8357 -0.5492
vn -0.0000 0.9942 0.1078
vn 0.0001 0.1933 0.9811
vn 0.6418 0.1779 0.7459
vn 0.3544 0.7306 0.5836
vn 0.0000 0.7564 0.6541
vn 0.6418 0.1779 0.7459
vn 0.9788 0.1863 0.0854
vn 0.6723 0.7275 0.1367
vn 0.3544 0.7306 0.5836
vn 0.7998 0.3226 -0.5062
vn 0.5307 0.7168 -0.4522
vn 0.6723 0.7275 0.1367
vn 0.9788 0.1863 0.0854
vn 0.0000 0.4898 -0.8718
vn -0.0000 0.8357 -0.5492
vn 0.5307 0.7168 -0.4522
vn 0.7998 0.3226 -0.5062
vn -0.0001 -0.0720 0.9974
vn 0.6566 -0.0565 0.7522
vn 0.6418 0.1779 0.7459
vn 0.0001 0.1933 0.9811
vn 0.6566 -0.0565 0.7522
vn 0.9748 -0.0199 0.2223
vn 0.9788 0.1863 0.0854
vn 0.6418 0.1779 0.7459
vn 0.7998 0.3226 -0.5062
vn 0.9788 0.1863 0.0854
vn 0.9748 -0.0199 0.2223
# 78 vertex normals

vt 0.6633 0.9329 0.0000
vt 0.7243 0.9319 0.0000
vt 0.6737 0.9823 0.0000
vt 0.5520 0.9335 0.0000
vt 0.5962 0.9823 0.0000
vt 0.4416 0.9363 0.0000
vt 0.4823 0.9823 0.0000
vt 0.2965 0.9350 0.0000
vt 0.3412 0.9823 0.0000
vt 0.7319 0.8314 0.0000
vt 0.6711 0.8310 0.0000
vt 0.5695 0.8309 0.0000
vt 0.4703 0.8324 0.0000
vt 0.2965 0.8348 0.0000
vt 0.6699 0.6832 0.0000
vt 0.7321 0.6834 0.0000
vt 0.5210 0.6830 0.0000
vt 0.6633 0.9329 0.0000
vt 0.6737 0.9823 0.0000
vt 0.5520 0.9335 0.0000
vt 0.5962 0.9823 0.0000
vt 0.0410 0.9335 0.0000
vt 0.1514 0.9363 0.0000
vt 0.1108 0.9823 0.0000
vt 0.2519 0.9823 0.0000
vt 0.6711 0.8310 0.0000
vt 0.5695 0.8309 0.0000
vt 0.0235 0.8309 0.0000
vt 0.1228 0.8324 0.0000
vt 0.6699 0.6832 0.0000
vt 0.5707 0.6830 0.0000
vt 0.0720 0.6830 0.0000
# 32 texture coords

g Object01
s 1
f 1/1/1 2/2/2 3/3/3 
f 4/4/4 1/1/5 3/5/6 
f 5/6/7 4/4/8 3/7/9 
f 6/8/10 5/6/11 3/9/12 
f 1/1/13 8/11/14 7/10/15 2/2/16 
f 4/4/17 9/12/18 8/11/19 1/1/20 
f 10/13/21 9/12/22 4/4/23 5/6/24 
f 11/14/25 10/13/26 5/6/27 6/8/28 
f 13/16/29 7/10/30 8/11/31 12/15/32 
f 12/15/33 8/11/34 9/12/35 14/17/36 
f 10/13/37 14/17/38 9/12/39 
f 2/2/40 15/18/41 3/19/42 
f 15/18/43 16/20/44 3/21/45 
f 16/22/46 17/23/47 3/24/48 
f 17/23/49 6/8/50 3/25/51 
f 7/10/52 18/26/53 15/18/54 2/2/55 
f 18/26/56 19/27/57 16/20/58 15/18/59 
f 20/29/60 17/23/61 16/22/62 19/28/63 
f 11/14/64 6/8/65 17/23/66 20/29/67 
f 13/16/68 21/30/69 18/26/70 7/10/71 
f 21/30/72 22/31/73 19/27/74 18/26/75 
f 20/29/76 19/28/77 22/32/78 
# 12 polygons - 10 triangles

